<svg width="249" height="60" viewBox="0 0 249 60" fill="none" xmlns="http://www.w3.org/2000/svg">
<path d="M42.6504 0C52.2322 0 60 7.7678 60 17.3496V42.6504C60 52.2322 52.2322 60 42.6504 60H0V17.3496C0 7.7678 7.7678 0 17.3496 0H42.6504ZM17.3496 5.7832C10.9617 5.7832 5.7832 10.9617 5.7832 17.3496V54.2168H42.6504C49.0383 54.2168 54.2168 49.0383 54.2168 42.6504V17.3496C54.2168 10.9617 49.0383 5.7832 42.6504 5.7832H17.3496ZM42.6504 8.6748C47.4412 8.67486 51.325 12.5589 51.3252 17.3496V42.6514C51.325 47.4421 47.4412 51.3261 42.6504 51.3262H8.6748V17.3496C8.67495 12.559 12.558 8.67505 17.3486 8.6748H42.6504ZM17.3486 14.458C15.752 14.4583 14.4582 15.7529 14.458 17.3496V45.543H42.6504C44.2472 45.5429 45.5418 44.2482 45.542 42.6514V17.3496C45.5418 15.7528 44.2472 14.4581 42.6504 14.458H17.3486ZM42.6504 42.6514H17.3496V17.3506H42.6504V42.6514ZM23.1328 36.8682H36.8672V23.1338H23.1328V36.8682Z" fill="url(#paint0_linear_502_2623)"/>
<path d="M247.634 22.814C247.634 25.1272 247.071 27.0646 245.943 28.626C244.816 30.1586 242.938 31.2718 240.308 31.9658L240.828 30.4911L248.675 43.373H241.392L233.979 31.3586L235.713 32.3562H224.355V43.373H217.809V13.4453H237.187C240.568 13.4453 243.155 14.255 244.946 15.8742C246.738 17.4935 247.634 19.8068 247.634 22.814ZM241.001 22.3803C241.001 21.1658 240.64 20.1971 239.918 19.4742C239.195 18.7224 237.967 18.3465 236.233 18.3465H224.355V27.4116H236.233C237.967 27.4116 239.195 27.0501 239.918 26.3272C240.64 25.5754 241.001 24.5923 241.001 23.3778V22.3803Z" fill="white"/>
<path d="M213.436 43.373H186.992V13.4453H213.219V18.52H193.538V25.6333H209.057V30.5345H193.538V38.2983H213.436V43.373Z" fill="white"/>
<path d="M182.442 23.3345C182.442 26.4863 181.589 28.9441 179.884 30.708C178.208 32.4718 175.578 33.3537 171.994 33.3537H159.162V43.373H152.616V13.4453H171.994C175.578 13.4453 178.208 14.3272 179.884 16.0911C181.589 17.826 182.442 20.2405 182.442 23.3345ZM175.765 22.7706C175.765 21.5272 175.39 20.5152 174.638 19.7345C173.916 18.9537 172.731 18.5634 171.084 18.5634H159.162V28.2357H171.084C172.731 28.2357 173.916 27.8453 174.638 27.0646C175.39 26.2839 175.765 25.2718 175.765 24.0284V22.7706Z" fill="white"/>
<path d="M128.924 43.377H122.059L129.489 32.5508L114.112 13.3779H120.976L132.818 27.7021L142.651 13.377H149.515L128.924 43.377Z" fill="white"/>
<path d="M110.89 43.373H104.3V30.6212H86.7867V43.373H80.2407V13.4453H86.7867V25.2863H104.3V13.4453H110.89V43.373Z" fill="white"/>
<defs>
<linearGradient id="paint0_linear_502_2623" x1="60" y1="60" x2="0" y2="0" gradientUnits="userSpaceOnUse">
<stop offset="0.271084" stop-color="#6584FC"/>
<stop offset="0.662052" stop-color="#E01F9C"/>
<stop offset="1" stop-color="#FF0583"/>
</linearGradient>
</defs>
</svg>
