<?xml version="1.0" encoding="UTF-8"?>
<svg id="Layer_1" data-name="Layer 1" xmlns="http://www.w3.org/2000/svg" width="3646" height="754" viewBox="0 0 3646 754">
  <path d="M2238.76,78.87h143.82q11.47,28.66,15.1,38.14c.42,1.09.85,2.19,1.28,3.32.89,2.31,1.78,4.62,2.67,6.92,2.15,5.59,4.3,11.19,6.46,16.78.74,1.91,1.47,3.81,2.21,5.72,4.55,11.84,9.14,23.66,13.73,35.48,7.32,18.85,14.6,37.71,21.88,56.57,6.33,16.44,12.69,32.87,19.07,49.29,7.31,18.85,14.6,37.71,21.88,56.57,6.33,16.44,12.69,32.87,19.07,49.29,7.31,18.85,14.6,37.71,21.88,56.57,6.33,16.44,12.69,32.87,19.07,49.29,6.84,17.64,13.66,35.28,20.47,52.93,6.91,17.92,13.84,35.84,20.78,53.74,2.68,6.88,5.34,13.76,8.01,20.64.8,2.06,1.6,4.11,2.39,6.17,2.44,6.28,4.87,12.57,7.31,18.85.76,1.96,1.52,3.93,2.28,5.89,1.05,2.69,2.09,5.37,3.13,8.06.31.8.62,1.6.94,2.43q2.11,5.45,2.11,6.56c-15.51.12-31.03.2-46.54.26-7.21.03-14.41.06-21.62.12-6.28.05-12.57.08-18.86.09-3.33,0-6.64.02-9.97.06q-33.4.33-46.83-12.51c-.64-.61-1.27-1.21-1.93-1.84-8.82-9.24-11.99-22.37-15.94-34.23-.56-1.65-1.12-3.31-1.67-4.96-1.46-4.34-2.92-8.68-4.36-13.02-2.3-6.89-4.61-13.77-6.92-20.65-.84-2.49-1.68-4.98-2.51-7.46-3.4-10.12-6.83-20.21-10.45-30.26-.29-.82-.58-1.65-.88-2.5-.25-.7-.51-1.39-.76-2.11q-.53-1.83-.53-4.82h-227.71c-.99,3.63-1.98,7.25-3,10.99-1.15,3.6-2.31,7.19-3.52,10.78-.33,1-.67,2.01-1.02,3.05-1.08,3.26-2.18,6.52-3.27,9.77-.76,2.27-1.52,4.54-2.28,6.81-1.55,4.61-3.1,9.22-4.64,13.83-1.78,5.28-3.55,10.57-5.31,15.86-1.24,3.72-2.49,7.43-3.75,11.15-.58,1.72-1.15,3.43-1.72,5.15-5.76,17.29-11.31,31.35-27.44,41.47-6.18,3.01-12.1,5.12-19.02,5.11-1.01,0-2.03,0-3.07,0-1.11,0-2.22,0-3.36,0h-3.55c-3.87,0-7.74,0-11.61-.02-2.69,0-5.36,0-8.04,0-6.34,0-12.68-.01-19.02-.02-7.22-.01-14.44-.02-21.65-.02-14.84,0-29.69-.03-44.53-.05q6.41-18.31,9.3-25.59c.29-.73.58-1.46.87-2.21.62-1.57,1.23-3.13,1.85-4.7,1.75-4.44,3.49-8.88,5.22-13.32.38-.96.75-1.92,1.14-2.9,4.84-12.37,9.62-24.77,14.39-37.17,1.89-4.9,3.79-9.8,5.67-14.7.46-1.21.93-2.41,1.41-3.66,4.51-11.7,9.05-23.39,13.58-35.08,6.84-17.64,13.66-35.28,20.47-52.93,6.87-17.82,13.75-35.63,20.66-53.43.39-1,.77-2,1.17-3.02,3.1-7.97,6.19-15.95,9.29-23.92,2.72-7,5.42-14,8.14-20.99.39-1,.78-1.99,1.18-3.02,6.51-16.8,13-33.6,19.49-50.41,6.87-17.82,13.75-35.63,20.66-53.43.39-1,.77-2,1.17-3.02,3.1-7.97,6.19-15.95,9.29-23.92,2.72-7,5.42-14,8.14-20.99.39-1,.78-1.99,1.18-3.02,6.51-16.8,13-33.6,19.49-50.41,6.7-17.37,13.41-34.75,20.13-52.11.79-2.04,1.58-4.08,2.38-6.13,1.09-2.84,2.2-5.67,3.3-8.51q.45-1.18.92-2.38c3.67-9.45,7.46-18.84,11.23-28.25ZM2309.67,205.72c-.3,1.05-.59,2.09-.9,3.17-5.97,21.12-12.32,42.01-19.77,62.67-3.65,10.14-7.18,20.32-10.66,30.53-.29.86-.59,1.72-.89,2.6-7.99,23.44-15.79,46.94-23.6,70.44-2.52,7.6-5.04,15.2-7.57,22.79-.99,2.96-1.98,5.93-2.96,8.89-3.61,10.83-7.28,21.64-11.11,32.4-.32.91-.64,1.83-.97,2.77-.29.81-.58,1.62-.87,2.45q-.72,1.95-.62,3.98h161.8q-9.33-28.85-18.91-57.62c-.59-1.76-1.18-3.51-1.77-5.27-1.55-4.59-3.1-9.17-4.65-13.75-1.63-4.83-3.27-9.67-4.89-14.5-6.13-18.18-12.28-36.35-18.43-54.52-.27-.77-.53-1.54-.8-2.34-2.43-7.18-4.85-14.35-7.28-21.53-4.56-13.45-9.1-26.91-13.59-40.39q-.61-1.83-1.24-3.69c-3.22-9.66-6.32-19.36-9.34-29.09h-1Z" fill="#f5f7fa"/>
  <path d="M3039.76,78.87c15.97-.07,31.95-.12,47.92-.16,7.42-.02,14.84-.04,22.26-.07,6.46-.03,12.93-.05,19.41-.06,3.43,0,6.84-.01,10.27-.03,3.83-.02,7.66-.02,11.49-.02,1.13-.01,2.25-.02,3.41-.03,13.86.05,24.22,4.55,34.58,13.55,8.41,9.47,11.85,21.34,15.97,33.08.74,2.06,1.47,4.13,2.21,6.19,1.59,4.46,3.18,8.91,4.75,13.37,3.95,11.08,7.94,22.14,11.93,33.2,1.4,3.89,2.81,7.78,4.2,11.67,6.09,16.88,12.2,33.75,18.35,50.61,7.09,19.46,14.14,38.94,21.16,58.43.23.64.46,1.29.7,1.95,1.16,3.22,2.32,6.43,3.48,9.65.23.63.46,1.26.69,1.9.45,1.26.91,2.52,1.36,3.78,4.1,11.39,8.22,22.77,12.33,34.16,1.04,2.85,2.07,5.7,3.1,8.55,3.13,8.64,6.25,17.27,9.39,25.91,9.04,24.92,18.04,49.85,26.7,74.9.23.66.46,1.32.7,2,6.85,19.78,12.8,39.72,18.28,59.92.58-2.18,1.17-4.36,1.75-6.54.18-.68.36-1.35.55-2.05,1.23-4.6,2.44-9.19,3.64-13.79,5.48-20.81,12-41.16,19.04-61.5.6-1.73,1.19-3.46,1.79-5.19,7.11-20.62,14.38-41.17,21.82-61.67.27-.75.54-1.5.82-2.27.28-.76.56-1.53.84-2.31,3.89-10.71,7.72-21.44,11.57-32.17,6.94-19.38,13.89-38.76,20.85-58.13,6.87-19.09,13.72-38.18,20.57-57.28,2.29-6.4,4.58-12.81,6.88-19.21,2.23-6.2,4.44-12.4,6.67-18.6,2.32-6.47,4.63-12.94,6.96-19.42,1.25-3.49,2.5-6.98,3.76-10.47,4.51-12.63,9.05-25.26,13.75-37.83.3-.83.61-1.66.92-2.52,2.55-6.71,5.74-12.16,10.64-17.48q.9-.99,1.82-1.99c7.38-7.19,18-12.12,28.33-12.11,1.05,0,2.1,0,3.18,0,1.14,0,2.29,0,3.47.01,1.21,0,2.42,0,3.66,0,3.32,0,6.62,0,9.93.01,3.47,0,6.92,0,10.39,0,6.55,0,13.1.01,19.66.02,7.45.01,14.91.02,22.37.02,15.34.01,30.68.03,46.02.05-.59,3.28-1.38,6.25-2.61,9.34q-.5,1.26-1.01,2.54c-.37.91-.73,1.82-1.11,2.75-.38.97-.77,1.94-1.17,2.94-1.28,3.23-2.57,6.45-3.87,9.68-.91,2.29-1.82,4.57-2.73,6.86-1.93,4.83-3.86,9.66-5.78,14.49-2.41,6.02-4.81,12.04-7.21,18.06-11.79,29.59-23.67,59.13-35.62,88.66-8,19.79-15.96,39.6-23.92,59.41-.45,1.12-.9,2.23-1.37,3.38-14.64,36.42-29.2,72.88-43.71,109.35-14.73,37.04-29.53,74.04-44.44,111-8.99,22.29-17.95,44.58-26.91,66.88-2.34,5.81-4.67,11.63-7.01,17.44-1.77,4.4-3.54,8.81-5.31,13.21-.85,2.13-1.71,4.25-2.56,6.38-4.26,10.6-8.52,21.2-12.74,31.82-.67,1.67-1.33,3.33-2,5-1.21,3.04-2.42,6.08-3.63,9.12-.52,1.32-1.05,2.65-1.58,3.97-.45,1.14-.9,2.27-1.37,3.44q-1.07,2.52-2.07,3.51c-1.64.1-3.29.12-4.93.12-1.07,0-2.14,0-3.24,0-1.19,0-2.37,0-3.59,0h-3.76c-3.4,0-6.8,0-10.21-.01-3.55,0-7.1,0-10.66,0-6.73,0-13.46-.01-20.19-.02-7.66-.01-15.32-.02-22.98-.02-15.76,0-31.53-.03-47.29-.05-3.19-6.88-6.19-13.79-8.98-20.84-.37-.92-.74-1.85-1.12-2.8-1.21-3.05-2.42-6.09-3.62-9.14-.87-2.18-1.74-4.35-2.6-6.53-1.85-4.64-3.69-9.28-5.52-13.92-4.64-11.71-9.3-23.41-13.95-35.11-.75-1.87-1.5-3.74-2.24-5.62-8.43-21.19-16.9-42.36-25.43-63.51-.98-2.42-1.96-4.84-2.93-7.26-2.69-6.66-5.36-13.31-8.05-19.96-9.12-22.62-18.23-45.24-27.33-67.87-.44-1.11-.89-2.23-1.35-3.37-15.98-39.72-31.85-79.49-47.65-119.28-9.57-24.08-19.2-48.14-28.92-72.16-.4-.97-.79-1.94-1.19-2.94-.4-.98-.8-1.95-1.2-2.96-7.66-18.92-15.27-37.87-22.88-56.81-1.88-4.67-3.76-9.34-5.63-14.01q-17.97-44.66-24.94-62.31c-.45-1.12-.89-2.23-1.35-3.39-.39-.98-.77-1.97-1.17-2.98-.33-.83-.66-1.66-.99-2.51q-.68-1.96-.68-3.96Z" fill="#f5f7fa"/>
  <path d="M1538.37,78.02c.74,0,1.48,0,2.24-.01,2.46-.01,4.92,0,7.38,0,1.79,0,3.58,0,5.36-.02,4.9-.01,9.81-.01,14.71,0,5.29,0,10.58,0,15.87-.02,10.37-.02,20.72-.02,31.09-.01,8.42,0,16.84,0,25.27,0q1.8,0,3.63,0c2.44,0,4.87,0,7.31,0,22.84-.01,45.68,0,68.51,0,20.89,0,41.79,0,62.68-.03,21.45-.02,42.91-.03,64.36-.03,12.04,0,24.09,0,36.13-.02,10.25-.01,20.5-.02,30.76,0,5.22,0,10.46.01,15.69,0,4.78-.01,9.58,0,14.37.01,1.73,0,3.46,0,5.18,0,11.96-.07,23.34.52,32.38,9.37,5.85,7.01,8.04,14.1,9.18,22.96.12.89.24,1.78.36,2.7.42,3.14.83,6.28,1.23,9.43q.24,1.84.48,3.71c1.17,9.06,2.31,18.12,3.43,27.18.37,2.95.74,5.91,1.12,8.86.36,2.86.71,5.72,1.07,8.57.17,1.36.34,2.72.51,4.07.24,1.88.47,3.76.7,5.64.14,1.07.27,2.13.41,3.23q.28,2.65.28,5.64h-181.77v488.39h-140.82V189.26h-182.77c0-5.53.19-10.58.95-16q.15-1.13.3-2.29c.33-2.48.67-4.95,1.02-7.42.23-1.74.47-3.47.71-5.21.49-3.63,1-7.26,1.5-10.89.64-4.63,1.27-9.26,1.89-13.9.48-3.58.98-7.17,1.48-10.75.23-1.71.46-3.41.69-5.12q2.26-16.94,6.45-24.31c.56-1.05,1.11-2.1,1.69-3.18,6.74-8.2,16.56-12.17,27.01-12.18Z" fill="#f5f7fa"/>
  <path d="M2756.12,78.87c14.13-.09,28.26-.16,42.41-.21,6.56-.02,13.12-.05,19.69-.09,6.34-.04,12.68-.07,19.03-.08,2.41,0,4.82-.02,7.24-.04,3.39-.03,6.78-.03,10.17-.03.99-.01,1.98-.03,3-.04,11.5.07,20.84,4.11,28.99,12.14,8.23,9,10.63,19.21,10.56,31.14v2.93c0,3.24,0,6.47,0,9.71,0,2.34,0,4.69,0,7.03,0,5.76,0,11.53,0,17.29-.02,6.9,0,13.81,0,20.71,0,12.74,0,25.49-.02,38.23,0,12.62-.02,25.23-.02,37.85v14.33c0,28.22-.02,56.43-.04,84.65-.02,27.41-.03,54.82-.04,82.24v2.56c0,8.49,0,16.97,0,25.46,0,17.29,0,34.57-.02,51.86v2.41c0,53.07-.05,106.15-.08,159.22-14.26.09-28.52.16-42.8.21-6.62.02-13.24.05-19.87.09-6.39.04-12.79.07-19.19.08-2.44,0-4.87.02-7.31.04-3.43.03-6.84.03-10.27.03-1,.01-2,.03-3.03.04-11.04-.06-20.46-3.69-28.37-11.48-10.9-12.87-10.56-26.88-10.47-42.87,0-2.35,0-4.71,0-7.06,0-5.78,0-11.56.02-17.34.02-6.93.02-13.85.02-20.78,0-12.78,0-25.56.03-38.34.02-12.65.04-25.3.04-37.95v-2.39c0-4,0-7.99,0-11.99,0-28.3.03-56.6.07-84.9.04-27.49.06-54.98.08-82.46v-2.57c0-8.51,0-17.02.02-25.54,0-17.34.02-34.68.03-52.02v-2.41c.04-53.22.1-106.44.17-159.66Z" fill="#f5f7fa"/>
  <g>
    <path d="M1232.73.97H145.39l327.56,192.58,726,432.38c14.89,8.87,34.08-1.49,34.08-18.39V.97h-.29Z" fill="#f5f7fa"/>
    <path d="M35.84,18.56c-2.97-1.77-6.1-2.75-9.22-3.09-.2-.02-.4-.04-.6-.06-.17-.01-.34-.02-.51-.03-.36-.02-.72-.04-1.08-.04-.09,0-.19,0-.28,0-.34,0-.68.01-1.02.03-.28.01-.56.04-.83.06-.09,0-.19.02-.28.03-10.67,1.06-20.01,9.62-20.01,21.38v580.4h0v28.11l226.75-1.46,369.35-.21h488.61l-329.8-195.5L35.84,18.56Z" fill="#f5f7fa"/>
    <path d="M856.3,700.1h-485.2c-4.13,0-7.54,3.14-7.95,7.17h-.04s0,.8,0,.8c0,0,0,.02,0,.03v46.94h501.18v-46.94c0-4.41-3.58-7.99-7.99-7.99Z" fill="#f5f7fa"/>
  </g>
</svg>